<svg width="131" height="23" viewBox="0 0 131 23" fill="none" xmlns="http://www.w3.org/2000/svg">
<path d="M0.340576 14.4817C1.1188 13.4047 1.77729 12.4772 2.31606 11.6993C2.85482 10.9215 3.30006 10.2446 3.65175 9.66867C4.00345 9.09275 4.27657 8.59537 4.47113 8.17652C4.66568 7.75767 4.8116 7.37996 4.90887 7.04338C5.00615 6.7068 5.06602 6.38145 5.08846 6.06731C5.11091 5.75317 5.12214 5.40912 5.12214 5.03515V1.82646H9.0731V5.03515C9.0731 5.40912 9.08432 5.75317 9.10677 6.06731C9.12922 6.38145 9.18908 6.7068 9.28636 7.04338C9.38364 7.37996 9.5333 7.75767 9.73533 8.17652C9.93737 8.59537 10.2142 9.08527 10.5659 9.64623C10.9176 10.2072 11.3554 10.8691 11.8792 11.632C12.403 12.3949 13.0465 13.2999 13.8098 14.3471L11.1608 16.4563C10.3976 15.3942 9.78023 14.5191 9.30881 13.831C8.83739 13.1429 8.4595 12.5595 8.17515 12.0808C7.8908 11.6021 7.6738 11.1907 7.52414 10.8467C7.37448 10.5026 7.23231 10.1511 7.09762 9.79208C6.96292 10.181 6.81701 10.555 6.65987 10.914C6.50273 11.273 6.28573 11.6993 6.00886 12.193C5.73199 12.6866 5.36159 13.285 4.89765 13.988C4.43371 14.6911 3.82012 15.5887 3.05686 16.6807L0.340576 14.4817ZM14.3261 0.659668H18.0975V8.17652H21.0158V11.2954H18.0975V21.6395H14.3261V0.659668Z" fill="white"/>
<path d="M28.9401 11.8788C28.0422 11.8788 27.2303 11.7442 26.5044 11.475C25.7786 11.2057 25.1575 10.828 24.6412 10.3418C24.1249 9.85565 23.7283 9.27974 23.4514 8.61406C23.1746 7.94839 23.0361 7.21915 23.0361 6.42632C23.0361 5.6335 23.1746 4.90426 23.4514 4.23859C23.7283 3.57291 24.1249 2.997 24.6412 2.51083C25.1575 2.02467 25.7786 1.64696 26.5044 1.3777C27.2303 1.10844 28.0422 0.973805 28.9401 0.973805C29.8381 0.973805 30.6013 1.10844 31.3197 1.3777C32.038 1.64696 32.6479 2.02467 33.1492 2.51083C33.6506 2.997 34.0397 3.57291 34.3166 4.23859C34.5934 4.90426 34.7319 5.6335 34.7319 6.42632C34.7319 7.21915 34.5934 7.94839 34.3166 8.61406C34.0397 9.27974 33.6506 9.85565 33.1492 10.3418C32.6479 10.828 32.038 11.2057 31.3197 11.475C30.6013 11.7442 29.8081 11.8788 28.9401 11.8788ZM25.8647 13.5617H40.1869V21.7517H25.8647V13.5617ZM26.6279 6.42632C26.6279 7.14435 26.8399 7.72027 27.264 8.15408C27.688 8.58789 28.2505 8.80479 28.9514 8.80479C29.6522 8.80479 30.2135 8.58789 30.6387 8.15408C31.0628 7.72027 31.2748 7.14435 31.2748 6.42632C31.2748 5.7083 31.0628 5.13238 30.6387 4.69857C30.2147 4.26476 29.6522 4.04786 28.9514 4.04786C28.2505 4.04786 27.6892 4.26476 27.264 4.69857C26.8399 5.13238 26.6279 5.7083 26.6279 6.42632ZM36.5727 18.8572V16.4114H29.5013V18.8572H36.5727ZM36.5951 0.659668H40.1869V5.55123H43.1052V8.53553H40.1869V12.7764H36.5951V0.659668Z" fill="white"/>
<path d="M56.3052 1.33282V4.22737H49.4135V8.53553C50.8352 8.53553 52.2083 8.49065 53.5328 8.4009C54.8573 8.31115 56.1481 8.16156 57.4052 7.95213L57.7195 10.8467C55.9236 11.1459 54.0192 11.3216 52.0063 11.374C49.9934 11.4263 47.8945 11.4525 45.7095 11.4525V1.33282H56.3052ZM49.5931 17.5445C49.5931 16.8128 49.7353 16.1384 50.0209 15.5188C50.3052 14.8993 50.7068 14.3658 51.2243 13.9182C51.7419 13.4707 52.3605 13.1229 53.0801 12.8774C53.7997 12.6318 54.6016 12.5084 55.4871 12.5084C56.3726 12.5084 57.1745 12.6318 57.8941 12.8774C58.6137 13.1229 59.2323 13.4707 59.7498 13.9182C60.2674 14.3658 60.6677 14.9005 60.9533 15.5188C61.2377 16.1384 61.3811 16.814 61.3811 17.5445C61.3811 18.2314 61.2464 18.8771 60.9758 19.4817C60.7052 20.0863 60.316 20.6161 59.806 21.0711C59.2959 21.5261 58.6773 21.8839 57.9502 22.1456C57.2231 22.4062 56.4013 22.5371 55.4871 22.5371C54.5729 22.5371 53.7511 22.4062 53.024 22.1456C52.2969 21.8839 51.6783 21.5261 51.1682 21.0711C50.6581 20.6161 50.269 20.085 49.9984 19.4817C49.7278 18.8771 49.5931 18.2314 49.5931 17.5445ZM53.1849 17.3987C53.1849 17.9821 53.3894 18.4682 53.7985 18.8572C54.2088 19.2461 54.77 19.4406 55.4858 19.4406C56.2017 19.4406 56.7629 19.2461 57.172 18.8572C57.5823 18.4682 57.7868 17.9821 57.7868 17.3987C57.7868 16.8153 57.5823 16.3291 57.172 15.9402C56.7629 15.5513 56.2005 15.3568 55.4858 15.3568C54.7712 15.3568 54.2088 15.5513 53.7985 15.9402C53.3894 16.3291 53.1849 16.8153 53.1849 17.3987ZM58.7297 0.659668H62.3215V5.55123H65.2398V8.53553H62.3215V13.0232H58.7297V0.659668Z" fill="white"/>
<path d="M73.4555 14.1002C72.6474 14.1002 71.9066 13.988 71.2331 13.7637C70.5597 13.5393 69.9797 13.2251 69.4934 12.8213C69.007 12.4174 68.6291 11.9275 68.3597 11.3515C68.0903 10.7756 67.9556 10.1287 67.9556 9.41062C67.9556 8.6926 68.1502 8.09424 68.5393 7.5258L67.8209 7.75019H66.7209V4.90052H79.6963V7.75019H79.0677L78.3718 7.54824C78.7609 8.10172 78.9555 8.72251 78.9555 9.41062C78.9555 10.0987 78.8208 10.7756 78.5514 11.3515C78.282 11.9275 77.9041 12.4174 77.4177 12.8213C76.9313 13.2251 76.3514 13.5393 75.678 13.7637C75.0045 13.988 74.2637 14.1002 73.4555 14.1002ZM69.4372 0.884052H77.4289V3.84591H69.4372V0.884052ZM69.6168 14.908H73.3657V18.6103H84.8819V21.6395H69.6168V14.908ZM71.4352 9.37697C71.4352 9.94167 71.626 10.3954 72.0076 10.7382C72.3892 11.081 72.8719 11.2506 73.4555 11.2506C74.0392 11.2506 74.5218 11.0798 74.9035 10.7382C75.2851 10.3954 75.4759 9.94291 75.4759 9.37697C75.4759 8.81102 75.2851 8.33608 74.9035 7.99451C74.5218 7.65171 74.0392 7.48093 73.4555 7.48093C72.8719 7.48093 72.3892 7.65171 72.0076 7.99451C71.626 8.33732 71.4352 8.79731 71.4352 9.37697ZM80.8187 0.659668H84.4105V6.65071H87.3288V9.67988H84.4105V15.9177H80.8187V0.659668Z" fill="white"/>
<path d="M89.9326 14.4144H97.1386C97.7971 14.4144 98.4406 14.3994 99.0692 14.3695C99.6978 14.3396 100.281 14.2947 100.82 14.2349C101.359 14.175 101.83 14.1002 102.234 14.0105C102.639 13.9207 102.953 13.8235 103.177 13.7188L103.716 16.6133C103.432 16.7629 103.061 16.8901 102.605 16.9948C102.148 17.0995 101.632 17.1855 101.056 17.2528C100.48 17.3201 99.8587 17.3688 99.1927 17.3987C98.5267 17.4286 97.842 17.4436 97.1386 17.4436H89.9326V14.4144ZM96.5101 12.552C95.6421 12.552 94.8526 12.4174 94.1417 12.1481C93.4309 11.8788 92.8173 11.5011 92.3009 11.015C91.7846 10.5288 91.3843 9.95288 91.0999 9.28721C90.8156 8.62154 90.6734 7.88482 90.6734 7.07704C90.6734 6.26926 90.8156 5.55123 91.0999 4.87808C91.3843 4.20493 91.7846 3.62527 92.3009 3.13911C92.8173 2.65294 93.4309 2.27149 94.1417 1.99475C94.8526 1.71801 95.6421 1.57964 96.5101 1.57964C97.3781 1.57964 98.1488 1.71801 98.8672 1.99475C99.5855 2.27149 100.203 2.65294 100.719 3.13911C101.236 3.62527 101.636 4.20493 101.92 4.87808C102.205 5.55123 102.347 6.28421 102.347 7.07704C102.347 7.86986 102.205 8.62154 101.92 9.28721C101.636 9.95288 101.236 10.5288 100.719 11.015C100.203 11.5011 99.5855 11.8788 98.8672 12.1481C98.1488 12.4174 97.3631 12.552 96.5101 12.552ZM94.2203 7.07704C94.2203 7.81002 94.4336 8.39342 94.8601 8.82723C95.2866 9.26103 95.8366 9.47794 96.5101 9.47794C97.1835 9.47794 97.7148 9.26103 98.1488 8.82723C98.5828 8.39342 98.7998 7.81002 98.7998 7.07704C98.7998 6.34405 98.5828 5.76065 98.1488 5.32684C97.7148 4.89304 97.1686 4.67613 96.5101 4.67613C95.8516 4.67613 95.2866 4.89304 94.8601 5.32684C94.4336 5.76065 94.2203 6.34405 94.2203 7.07704ZM104.232 0.659668H108.004V21.9761H104.232V0.659668Z" fill="white"/>
<path d="M111.933 9.56769H119.026C119.67 9.56769 120.302 9.55273 120.923 9.52282C121.544 9.4929 122.117 9.44802 122.641 9.38819C123.164 9.32835 123.625 9.2573 124.021 9.17502C124.418 9.09275 124.728 8.99925 124.953 8.89454L125.492 11.5647C125.013 11.819 124.287 12.0097 123.314 12.1369C122.341 12.264 121.271 12.3426 120.104 12.3725V15.0202H116.557V12.3725H111.933V9.56769ZM118.398 9.36575C117.59 9.36575 116.856 9.26104 116.198 9.05161C115.539 8.84219 114.974 8.54675 114.503 8.1653C114.032 7.78384 113.665 7.33134 113.403 6.80778C113.141 6.28421 113.01 5.70082 113.01 5.05758C113.01 4.41435 113.141 3.83095 113.403 3.30739C113.665 2.78383 114.032 2.33133 114.503 1.94987C114.974 1.56842 115.539 1.27298 116.198 1.06356C116.856 0.854134 117.59 0.749422 118.398 0.749422C119.206 0.749422 119.939 0.854134 120.598 1.06356C121.256 1.27298 121.821 1.56842 122.293 1.94987C122.764 2.33133 123.131 2.78383 123.393 3.30739C123.655 3.83095 123.786 4.41435 123.786 5.05758C123.786 5.70082 123.655 6.28421 123.393 6.80778C123.131 7.33134 122.764 7.78384 122.293 8.1653C121.821 8.54675 121.256 8.84219 120.598 9.05161C119.939 9.26104 119.206 9.36575 118.398 9.36575ZM115.075 15.5812H118.802V18.7899H130.341V21.6395H115.075V15.5812ZM116.467 5.09124C116.467 5.55247 116.639 5.91897 116.984 6.19446C117.328 6.46995 117.799 6.60583 118.398 6.60583C118.996 6.60583 119.449 6.46871 119.801 6.19446C120.153 5.92021 120.328 5.55247 120.328 5.09124C120.328 4.63001 120.153 4.28595 119.801 4.01046C119.449 3.73622 118.982 3.59909 118.398 3.59909C117.814 3.59909 117.328 3.73622 116.984 4.01046C116.639 4.28471 116.467 4.64497 116.467 5.09124ZM122.461 12.8213H126.345V0.659668H130.004V16.8153H126.345V15.626H122.461V12.8213Z" fill="white"/>
</svg>
