<svg width="17" height="17" viewBox="0 0 17 17" fill="none" xmlns="http://www.w3.org/2000/svg">
<path d="M2.34082 2.53711L14.3408 14.5371M6.90367 7.14621C6.55525 7.50614 6.34082 7.99659 6.34082 8.53711C6.34082 9.64168 7.23625 10.5371 8.34082 10.5371C8.88914 10.5371 9.38592 10.3165 9.74722 9.9591M4.67415 4.96854C3.40795 5.804 2.44351 7.05974 1.97949 8.53709C2.82899 11.2418 5.35586 13.2038 8.34096 13.2038C9.66689 13.2038 10.9024 12.8167 11.9407 12.1494M7.67415 3.90337C7.89347 3.88159 8.11591 3.87044 8.34095 3.87044C11.3261 3.87044 13.8529 5.83239 14.7024 8.53713C14.5152 9.13309 14.2466 9.69299 13.9096 10.2038" stroke="white" stroke-width="1.5" stroke-linecap="round" stroke-linejoin="round"/>
</svg>
